<svg xmlns="http://www.w3.org/2000/svg" version="1.1" xmlns:xlink="http://www.w3.org/1999/xlink" xmlns:svgjs="http://svgjs.dev/svgjs" width="1500" height="1500" viewBox="0 0 1500 1500"><rect width="1500" height="1500" fill="#ed2647"></rect><g transform="matrix(0.6666666666666666,0,0,0.6666666666666666,249.39393939393938,438.58569500674764)"><svg viewBox="0 0 396 247" data-background-color="#ed2647" preserveAspectRatio="xMidYMid meet" height="935" width="1500" xmlns="http://www.w3.org/2000/svg" xmlns:xlink="http://www.w3.org/1999/xlink"><g id="tight-bounds" transform="matrix(1,0,0,1,0.2400000000000091,-0.09999999999999432)"><svg viewBox="0 0 395.52 247.2" height="247.2" width="395.52"><g><svg></svg></g><g><svg viewBox="0 0 395.52 247.2" height="247.2" width="395.52"><g transform="matrix(1,0,0,1,75.54432,91.92344211725995)"><svg viewBox="0 0 244.43135999999998 63.353115765480084" height="63.353115765480084" width="244.43135999999998"><g><svg viewBox="0 0 244.43135999999998 63.353115765480084" height="63.353115765480084" width="244.43135999999998"><g><svg viewBox="0 0 244.43136 63.35311576548009" height="63.353115765480084" width="244.43135999999998"><g><svg viewBox="0 0 244.43136 63.35311576548009" height="63.35311576548009" width="244.43136"><g id="textblocktransform"><svg viewBox="0 0 244.43136 63.35311576548009" height="63.35311576548009" width="244.43136" id="textblock"><g><svg viewBox="0 0 244.43136 34.169643404844294" height="34.169643404844294" width="244.43136"><g transform="matrix(1,0,0,1,0,0)"><svg width="244.43136" viewBox="1.75 -43.2 361.21 50.5" height="34.169643404844294" data-palette-color="#ff908b"><path d="M1.75 0L1.75-36.6 10.5-36.6 10.5-32.55Q11.15-34.7 12.78-35.88 14.4-37.05 16.8-37.05L16.8-37.05 16.8-29.75Q14.95-29.75 12.73-29.23 10.5-28.7 10.5-28L10.5-28 10.5 0 1.75 0ZM25.6 0.4Q21.35 0.4 19.77-2.43 18.2-5.25 18.2-10.5L18.2-10.5Q18.2-14.8 19.32-17.1 20.45-19.4 22.45-20.48 24.45-21.55 28.55-22.85L28.55-22.85 30.95-23.65 30.95-23.75 30.95-27.4Q30.95-28.85 30.37-29.63 29.8-30.4 29-30.4L29-30.4Q28.3-30.4 27.77-29.75 27.25-29.1 27.25-28L27.25-28 27.25-25.8 18.75-25.8 18.75-27Q18.75-32.4 21.27-34.7 23.8-37 29.5-37L29.5-37Q34.05-37 36.9-34.63 39.75-32.25 39.75-27.9L39.75-27.9 39.75 0 31.05 0 31.05-4.35Q30.4-2.1 28.97-0.85 27.55 0.4 25.6 0.4L25.6 0.4ZM29.05-6.4Q30.05-6.4 30.47-7.23 30.9-8.05 30.9-9.25L30.9-9.25 30.9-19.45Q28.95-18.7 28.02-17.55 27.1-16.4 27.1-14.35L27.1-14.35 27.1-9.65Q27.1-6.4 29.05-6.4L29.05-6.4ZM53.14 0.4Q42.3 0.4 42.3-10.6L42.3-10.6 42.34-13.5 51.09-13.5 51.14-9.2Q51.14-7.9 51.64-7.23 52.14-6.55 53.3-6.55L53.3-6.55Q55.05-6.55 55.05-9.4L55.05-9.4Q55.05-11.5 54.22-12.7 53.39-13.9 51.59-15.25L51.59-15.25 46.95-18.85Q44.55-20.7 43.49-22.68 42.45-24.65 42.45-28.25L42.45-28.25Q42.45-31.05 43.92-33.02 45.39-35 47.84-36 50.3-37 53.3-37L53.3-37Q63.95-37 63.95-26.4L63.95-26.4 63.95-25.7 54.89-25.7 54.89-27.1Q54.89-28.4 54.47-29.33 54.05-30.25 53.05-30.25L53.05-30.25Q52.14-30.25 51.67-29.73 51.2-29.2 51.2-28.3L51.2-28.3Q51.2-26.3 52.74-25.2L52.74-25.2 58.14-21.25Q61.05-19.1 62.59-16.57 64.14-14.05 64.14-10.2L64.14-10.2Q64.14-5.1 61.25-2.35 58.34 0.4 53.14 0.4L53.14 0.4ZM66.84 7.3L66.84-36.6 75.74-36.6 75.74-34.65Q77.64-37 80.99-37L80.99-37Q85.24-37 86.92-34.15 88.59-31.3 88.59-26.25L88.59-26.25 88.59-12.7Q88.59-8.4 88.09-5.68 87.59-2.95 85.89-1.28 84.19 0.4 80.74 0.4L80.74 0.4Q77.44 0.4 75.74-1.45L75.74-1.45 75.74 7.3 66.84 7.3ZM77.84-6.4Q79.04-6.4 79.39-7.5 79.74-8.6 79.74-10.7L79.74-10.7 79.74-26.25Q79.74-28.15 79.39-29.15 79.04-30.15 77.79-30.15L77.79-30.15Q75.74-30.15 75.74-26.35L75.74-26.35 75.74-10.3Q75.74-8.45 76.17-7.43 76.59-6.4 77.84-6.4L77.84-6.4ZM105.99 0.4Q102.39 0.4 100.84-3.9L100.84-3.9 100.84 0 91.84 0 91.84-43.2 100.84-43.2 100.84-34.85Q102.94-37 105.74-37L105.74-37Q109.99-37 111.84-34.48 113.69-31.95 113.69-27.2L113.69-27.2 113.69-9.55Q113.69-5.05 111.79-2.33 109.89 0.4 105.99 0.4L105.99 0.4ZM103.04-6.4Q103.94-6.4 104.31-6.98 104.69-7.55 104.77-8.43 104.84-9.3 104.84-11.15L104.84-11.15 104.84-26.4Q104.84-28.35 104.49-29.3 104.14-30.25 102.99-30.25L102.99-30.25Q101.74-30.25 101.29-29.3 100.84-28.35 100.84-26.5L100.84-26.5 100.84-11.15Q100.84-8.75 101.24-7.58 101.64-6.4 103.04-6.4L103.04-6.4ZM127.14 0.4Q121.49 0.4 119.04-2.7 116.59-5.8 116.59-11.95L116.59-11.95 116.59-26.65Q116.59-31.7 119.49-34.35 122.39-37 127.59-37L127.59-37Q138.14-37 138.14-26.65L138.14-26.65 138.14-24Q138.14-20 138.04-17.5L138.04-17.5 125.34-17.5 125.34-10.4Q125.34-8.5 125.74-7.43 126.14-6.35 127.44-6.35L127.44-6.35Q128.44-6.35 128.86-6.95 129.29-7.55 129.36-8.33 129.44-9.1 129.44-10.6L129.44-10.6 129.44-14.15 138.14-14.15 138.14-12.05Q138.14-5.65 135.66-2.63 133.19 0.4 127.14 0.4L127.14 0.4ZM125.29-21.85L129.44-21.85 129.44-26.55Q129.44-30.5 127.49-30.5L127.49-30.5Q125.29-30.5 125.29-26.55L125.29-26.55 125.29-21.85ZM141.28 0L141.28-36.6 150.03-36.6 150.03-32.55Q150.69-34.7 152.31-35.88 153.94-37.05 156.34-37.05L156.34-37.05 156.34-29.75Q154.48-29.75 152.26-29.23 150.03-28.7 150.03-28L150.03-28 150.03 0 141.28 0ZM158.48 0L158.48-36.6 167.23-36.6 167.23-32.55Q167.88-34.7 169.51-35.88 171.13-37.05 173.53-37.05L173.53-37.05 173.53-29.75Q171.68-29.75 169.46-29.23 167.23-28.7 167.23-28L167.23-28 167.23 0 158.48 0ZM174.98 6.1L174.98 0.55 179.18 0.55Q180.08 0.55 180.08-0.2L180.08-0.2Q180.08-0.55 180.03-0.75L180.03-0.75 174.33-36.6 182.68-36.6 184.33-18.75 185.13-9.65 186.08-18.75 188.03-36.6 196.43-36.6 189.63 1.9Q189.28 4.05 188.2 5.08 187.13 6.1 184.83 6.1L184.83 6.1 174.98 6.1ZM220.47 0.4Q209.62 0.4 209.62-10.6L209.62-10.6 209.67-13.5 218.42-13.5 218.47-9.2Q218.47-7.9 218.97-7.23 219.47-6.55 220.62-6.55L220.62-6.55Q222.37-6.55 222.37-9.4L222.37-9.4Q222.37-11.5 221.55-12.7 220.72-13.9 218.92-15.25L218.92-15.25 214.27-18.85Q211.87-20.7 210.82-22.68 209.77-24.65 209.77-28.25L209.77-28.25Q209.77-31.05 211.25-33.02 212.72-35 215.17-36 217.62-37 220.62-37L220.62-37Q231.27-37 231.27-26.4L231.27-26.4 231.27-25.7 222.22-25.7 222.22-27.1Q222.22-28.4 221.8-29.33 221.37-30.25 220.37-30.25L220.37-30.25Q219.47-30.25 219-29.73 218.52-29.2 218.52-28.3L218.52-28.3Q218.52-26.3 220.07-25.2L220.07-25.2 225.47-21.25Q228.38-19.1 229.92-16.57 231.47-14.05 231.47-10.2L231.47-10.2Q231.47-5.1 228.57-2.35 225.67 0.4 220.47 0.4L220.47 0.4ZM234.17 0L234.17-43.2 243.17-43.2 243.17-33Q244.57-37 248.52-37L248.52-37Q252.22-37 254.12-34.65 256.02-32.3 256.02-28.2L256.02-28.2 256.02 0 247.27 0 247.27-27.65Q247.27-28.85 246.72-29.6 246.17-30.35 245.12-30.35L245.12-30.35Q244.22-30.35 243.7-29.58 243.17-28.8 243.17-27.7L243.17-27.7 243.17 0 234.17 0ZM269.67 0.4Q264.02 0.4 261.57-2.7 259.12-5.8 259.12-11.95L259.12-11.95 259.12-26.65Q259.12-31.7 262.02-34.35 264.92-37 270.12-37L270.12-37Q280.67-37 280.67-26.65L280.67-26.65 280.67-24Q280.67-20 280.57-17.5L280.57-17.5 267.87-17.5 267.87-10.4Q267.87-8.5 268.27-7.43 268.67-6.35 269.97-6.35L269.97-6.35Q270.97-6.35 271.4-6.95 271.82-7.55 271.9-8.33 271.97-9.1 271.97-10.6L271.97-10.6 271.97-14.15 280.67-14.15 280.67-12.05Q280.67-5.65 278.19-2.63 275.72 0.4 269.67 0.4L269.67 0.4ZM267.82-21.85L271.97-21.85 271.97-26.55Q271.97-30.5 270.02-30.5L270.02-30.5Q267.82-30.5 267.82-26.55L267.82-26.55 267.82-21.85ZM283.82 0L283.82-36.6 292.57-36.6 292.57-32.55Q293.22-34.7 294.84-35.88 296.47-37.05 298.87-37.05L298.87-37.05 298.87-29.75Q297.02-29.75 294.79-29.23 292.57-28.7 292.57-28L292.57-28 292.57 0 283.82 0ZM315.16 0.4Q311.56 0.4 310.01-3.9L310.01-3.9 310.01 0 301.01 0 301.01-43.2 310.01-43.2 310.01-34.85Q312.12-37 314.91-37L314.91-37Q319.16-37 321.01-34.48 322.87-31.95 322.87-27.2L322.87-27.2 322.87-9.55Q322.87-5.05 320.96-2.33 319.06 0.4 315.16 0.4L315.16 0.4ZM312.21-6.4Q313.12-6.4 313.49-6.98 313.87-7.55 313.94-8.43 314.01-9.3 314.01-11.15L314.01-11.15 314.01-26.4Q314.01-28.35 313.66-29.3 313.31-30.25 312.16-30.25L312.16-30.25Q310.91-30.25 310.46-29.3 310.01-28.35 310.01-26.5L310.01-26.5 310.01-11.15Q310.01-8.75 310.41-7.58 310.81-6.4 312.21-6.4L312.21-6.4ZM336.31 0.4Q330.66 0.4 328.21-2.7 325.76-5.8 325.76-11.95L325.76-11.95 325.76-26.65Q325.76-31.7 328.66-34.35 331.56-37 336.76-37L336.76-37Q347.31-37 347.31-26.65L347.31-26.65 347.31-24Q347.31-20 347.21-17.5L347.21-17.5 334.51-17.5 334.51-10.4Q334.51-8.5 334.91-7.43 335.31-6.35 336.61-6.35L336.61-6.35Q337.61-6.35 338.04-6.95 338.46-7.55 338.54-8.33 338.61-9.1 338.61-10.6L338.61-10.6 338.61-14.15 347.31-14.15 347.31-12.05Q347.31-5.65 344.84-2.63 342.36 0.4 336.31 0.4L336.31 0.4ZM334.46-21.85L338.61-21.85 338.61-26.55Q338.61-30.5 336.66-30.5L336.66-30.5Q334.46-30.5 334.46-26.55L334.46-26.55 334.46-21.85ZM358.01 0.4Q354.56 0.4 353.26-1.05 351.96-2.5 351.96-5.7L351.96-5.7 351.96-28.55 349.51-28.55 349.51-35.2 351.96-35.2 351.96-42.95 360.46-42.95 360.46-35.2 362.96-35.2 362.96-28.55 360.46-28.55 360.46-8Q360.46-7.05 360.61-6.6 360.76-6.15 361.41-6.15L361.41-6.15Q361.91-6.15 362.36-6.2 362.81-6.25 362.96-6.25L362.96-6.25 362.96-0.25Q362.21-0.05 360.78 0.18 359.36 0.4 358.01 0.4L358.01 0.4Z" opacity="1" transform="matrix(1,0,0,1,0,0)" fill="#ff908b" class="wordmark-text-0" data-fill-palette-color="primary" id="text-0"></path></svg></g></svg></g><g transform="matrix(1,0,0,1,0,42.23627614128632)"><svg viewBox="0 0 244.43136 21.116839624193773" height="21.116839624193773" width="244.43136"><g transform="matrix(1,0,0,1,0,0)"><svg width="244.43136" viewBox="5.03 -39.11 609.84 52.68" height="21.116839624193773" data-palette-color="#8d021f"><path d="M22.61-19.78L22.61-19.78Q24.07-19.36 25.42-18.63 26.76-17.9 27.8-16.85 28.83-15.8 29.46-14.44 30.08-13.09 30.08-11.43L30.08-11.43Q30.08-9.45 29.11-7.42 28.15-5.4 26.27-3.75 24.39-2.1 21.61-1.05 18.82 0 15.19 0L15.19 0 5.03 0 5.03-35.77 16.19-35.77Q19.26-35.77 21.56-35.11 23.85-34.45 25.39-33.37 26.93-32.3 27.7-30.88 28.47-29.47 28.47-27.98L28.47-27.98Q28.47-26.71 27.98-25.55 27.49-24.39 26.68-23.35 25.88-22.31 24.82-21.41 23.75-20.51 22.61-19.78ZM11.08-16.5L11.08-4.3 15.77-4.3Q17.94-4.3 19.47-4.87 21-5.44 21.95-6.36 22.9-7.28 23.33-8.44 23.75-9.59 23.75-10.79L23.75-10.79Q23.75-12.28 23.17-13.35 22.58-14.43 21.51-15.12 20.43-15.82 18.95-16.16 17.46-16.5 15.65-16.5L15.65-16.5 11.08-16.5ZM11.08-20.68L19.04-20.68Q20.58-21.75 21.52-23.19 22.46-24.63 22.46-26.39L22.46-26.39Q22.46-28.74 20.62-30.1 18.77-31.47 15.38-31.47L15.38-31.47 11.08-31.47 11.08-20.68ZM59.22-5.32L59.22-2.37Q58.15-1.61 56.91-1.07 55.66-0.54 54.34-0.18 53.02 0.17 51.72 0.33 50.41 0.49 49.24 0.49L49.24 0.49Q46.53 0.49 44.2-0.34 41.87-1.17 40.14-2.78 38.42-4.39 37.45-6.75 36.47-9.11 36.47-12.16L36.47-12.16Q36.47-15.41 37.57-18.04 38.67-20.68 40.51-22.52 42.35-24.37 44.78-25.37 47.21-26.37 49.85-26.37L49.85-26.37Q52.05-26.37 53.94-25.65 55.83-24.93 57.21-23.51 58.59-22.09 59.37-19.97 60.15-17.85 60.15-15.04L60.15-15.04Q60.15-14.36 60.09-13.59 60.03-12.82 59.88-12.08L59.88-12.08 42.6-12.08Q42.6-10.11 43.29-8.59 43.99-7.08 45.26-6.07 46.53-5.05 48.31-4.53 50.09-4 52.24-4L52.24-4Q52.85-4 53.67-4.05 54.49-4.1 55.42-4.25 56.34-4.39 57.32-4.65 58.3-4.91 59.22-5.32L59.22-5.32ZM42.6-14.97L54.66-14.97Q54.66-16.75 54.21-18.09 53.76-19.43 52.97-20.34 52.19-21.24 51.16-21.69 50.12-22.14 48.92-22.14L48.92-22.14Q47.58-22.14 46.43-21.61 45.28-21.07 44.43-20.1 43.57-19.14 43.09-17.82 42.6-16.5 42.6-14.97L42.6-14.97ZM66.37-1.22L67.42-5.66 67.86-5.93Q68.81-5.42 69.85-5 70.89-4.59 71.92-4.31 72.94-4.03 73.92-3.88 74.89-3.74 75.75-3.74L75.75-3.74Q77.97-3.74 79.23-4.66 80.48-5.59 80.48-7.03L80.48-7.03Q80.48-8.01 79.91-8.64 79.34-9.28 78.4-9.73 77.46-10.18 76.26-10.52 75.06-10.86 73.81-11.24 72.55-11.62 71.35-12.11 70.16-12.6 69.22-13.35 68.28-14.11 67.7-15.2 67.13-16.28 67.13-17.87L67.13-17.87Q67.13-19.65 67.9-21.22 68.67-22.78 70.1-23.91 71.52-25.05 73.56-25.71 75.6-26.37 78.14-26.37L78.14-26.37Q78.78-26.37 79.62-26.32 80.46-26.27 81.38-26.16 82.29-26.05 83.22-25.88 84.15-25.71 84.95-25.44L84.95-25.44 83.88-21.07 83.34-20.75Q82.61-21.12 81.77-21.39 80.92-21.66 80.08-21.81 79.24-21.97 78.45-22.06 77.65-22.14 77.04-22.14L77.04-22.14Q74.89-22.14 73.69-21.29 72.48-20.43 72.48-18.99L72.48-18.99Q72.48-17.99 73.06-17.35 73.65-16.7 74.59-16.25 75.53-15.8 76.75-15.47 77.97-15.14 79.23-14.76 80.48-14.38 81.71-13.89 82.93-13.4 83.87-12.65 84.81-11.89 85.39-10.79 85.98-9.69 85.98-8.08L85.98-8.08Q85.98-6.27 85.2-4.7 84.42-3.13 82.98-1.98 81.53-0.83 79.51-0.17 77.48 0.49 75.02 0.49L75.02 0.49Q72.99 0.49 70.72 0.05 68.45-0.39 66.37-1.22L66.37-1.22ZM95.79-7.15L95.79-21.66 90.59-21.66 91.03-24.44Q92.96-24.93 94.12-25.54 95.28-26.15 96.04-27.04 96.81-27.93 97.39-29.21 97.96-30.49 98.72-32.32L98.72-32.32 101.55-32.32 101.55-25.88 110.85-25.88 109.8-21.66 101.72-21.66 101.72-8.33Q101.72-7.13 102.06-6.31 102.4-5.49 103.04-4.98 103.67-4.47 104.57-4.24 105.46-4 106.58-4L106.58-4Q107.65-4 108.72-4.2 109.78-4.39 110.73-4.76L110.73-4.76 110.73-1.78Q109.07-0.66 107.18-0.09 105.29 0.49 103.36 0.49L103.36 0.49Q99.67 0.49 97.73-1.51 95.79-3.52 95.79-7.15L95.79-7.15ZM148.78-19.78L148.78-19.78Q150.25-19.36 151.59-18.63 152.93-17.9 153.97-16.85 155.01-15.8 155.63-14.44 156.25-13.09 156.25-11.43L156.25-11.43Q156.25-9.45 155.29-7.42 154.32-5.4 152.45-3.75 150.57-2.1 147.78-1.05 145 0 141.36 0L141.36 0 131.2 0 131.2-35.77 142.36-35.77Q145.44-35.77 147.73-35.11 150.03-34.45 151.57-33.37 153.1-32.3 153.87-30.88 154.64-29.47 154.64-27.98L154.64-27.98Q154.64-26.71 154.15-25.55 153.67-24.39 152.86-23.35 152.05-22.31 150.99-21.41 149.93-20.51 148.78-19.78ZM137.26-16.5L137.26-4.3 141.95-4.3Q144.12-4.3 145.65-4.87 147.17-5.44 148.12-6.36 149.08-7.28 149.5-8.44 149.93-9.59 149.93-10.79L149.93-10.79Q149.93-12.28 149.34-13.35 148.76-14.43 147.68-15.12 146.61-15.82 145.12-16.16 143.63-16.5 141.82-16.5L141.82-16.5 137.26-16.5ZM137.26-20.68L145.22-20.68Q146.76-21.75 147.7-23.19 148.64-24.63 148.64-26.39L148.64-26.39Q148.64-28.74 146.79-30.1 144.95-31.47 141.56-31.47L141.56-31.47 137.26-31.47 137.26-20.68ZM178.2-3.81L178.2-3.81Q177.56-3.27 176.67-2.53 175.78-1.78 174.69-1.11 173.61-0.44 172.33 0.02 171.04 0.49 169.63 0.49L169.63 0.49Q168.19 0.49 166.96-0.04 165.72-0.56 164.81-1.5 163.89-2.44 163.37-3.75 162.84-5.05 162.84-6.64L162.84-6.64Q162.84-8.3 163.51-9.89 164.18-11.47 165.76-12.72 167.33-13.96 169.92-14.73 172.51-15.5 176.32-15.5L176.32-15.5 178.1-15.5 178.1-17.5Q178.1-18.58 177.73-19.43 177.37-20.29 176.71-20.9 176.05-21.51 175.13-21.83 174.22-22.14 173.1-22.14L173.1-22.14Q172.22-22.14 171.22-21.94 170.21-21.73 169.24-21.36 168.26-21 167.33-20.5 166.41-20 165.67-19.41L165.67-19.41 165.23-19.65 164.11-23.75Q167.06-25.29 169.6-25.83 172.14-26.37 174.36-26.37L174.36-26.37Q176.66-26.37 178.45-25.9 180.25-25.44 181.49-24.48 182.74-23.51 183.39-22.03 184.03-20.56 184.03-18.53L184.03-18.53 184.03-6.57Q184.03-6.2 184.09-5.76 184.15-5.32 184.34-4.93 184.52-4.54 184.87-4.27 185.23-4 185.81-4L185.81-4Q186.16-4 186.64-4.1 187.13-4.2 187.62-4.42L187.62-4.42 187.62-1.49Q186.3-0.59 185-0.05 183.69 0.49 182.45 0.49L182.45 0.49Q181.47 0.49 180.76 0.12 180.05-0.24 179.56-0.84 179.08-1.44 178.75-2.21 178.42-2.98 178.2-3.81ZM178.1-6.96L178.1-12.62 176.56-12.62Q174.02-12.62 172.47-12.27 170.92-11.91 170.07-11.29 169.21-10.67 168.93-9.85 168.65-9.03 168.65-8.08L168.65-8.08Q168.65-7.08 168.94-6.32 169.24-5.57 169.74-5.05 170.24-4.54 170.92-4.27 171.61-4 172.39-4L172.39-4Q172.97-4 173.61-4.14 174.24-4.27 174.94-4.61 175.63-4.96 176.42-5.52 177.2-6.08 178.1-6.96L178.1-6.96ZM195.7-7.15L195.7-21.66 190.5-21.66 190.94-24.44Q192.87-24.93 194.03-25.54 195.19-26.15 195.95-27.04 196.72-27.93 197.3-29.21 197.87-30.49 198.63-32.32L198.63-32.32 201.46-32.32 201.46-25.88 210.76-25.88 209.71-21.66 201.63-21.66 201.63-8.33Q201.63-7.13 201.97-6.31 202.31-5.49 202.95-4.98 203.58-4.47 204.48-4.24 205.37-4 206.49-4L206.49-4Q207.56-4 208.63-4.2 209.69-4.39 210.64-4.76L210.64-4.76 210.64-1.78Q208.98-0.66 207.09-0.09 205.2 0.49 203.27 0.49L203.27 0.49Q199.58 0.49 197.64-1.51 195.7-3.52 195.7-7.15L195.7-7.15ZM218.42 0L218.42-39.11 224.33-39.11 224.33-21.7Q225.24-22.51 226.32-23.33 227.41-24.15 228.62-24.83 229.83-25.51 231.17-25.94 232.51-26.37 233.95-26.37L233.95-26.37Q235.71-26.37 237.15-25.71 238.59-25.05 239.62-23.85 240.64-22.66 241.2-20.97 241.76-19.29 241.76-17.24L241.76-17.24 241.76 0 235.83 0 235.83-16.58Q235.83-17.9 235.46-18.88 235.1-19.87 234.46-20.53 233.83-21.19 232.94-21.52 232.05-21.85 231.02-21.85L231.02-21.85Q229.21-21.85 227.6-20.92 225.99-20 224.33-18.48L224.33-18.48 224.33 0 218.42 0ZM250.99 0L250.99-25.88 256.92-25.88 256.92 0 250.99 0ZM253.94-30.98L253.94-30.98Q253.16-30.98 252.51-31.24 251.87-31.49 251.39-31.93 250.91-32.37 250.66-32.98 250.4-33.59 250.4-34.3L250.4-34.3Q250.4-35.03 250.68-35.66 250.96-36.28 251.46-36.76 251.96-37.23 252.64-37.5 253.31-37.77 254.09-37.77L254.09-37.77Q254.85-37.77 255.48-37.5 256.11-37.23 256.58-36.78 257.04-36.33 257.31-35.71 257.58-35.08 257.58-34.38L257.58-34.38Q257.58-33.64 257.3-33.02 257.02-32.4 256.52-31.95 256.02-31.49 255.36-31.24 254.7-30.98 253.94-30.98ZM266.22 0L266.22-25.88 271-25.88 271.83-21.46Q272.69-22.24 273.76-23.11 274.84-23.97 276.11-24.69 277.38-25.42 278.78-25.89 280.18-26.37 281.7-26.37L281.7-26.37Q283.48-26.37 284.93-25.7 286.38-25.02 287.41-23.82 288.43-22.61 289-20.92 289.56-19.24 289.56-17.24L289.56-17.24 289.56 0 283.63 0 283.63-16.53Q283.63-17.85 283.26-18.85 282.89-19.85 282.25-20.51 281.6-21.17 280.71-21.51 279.82-21.85 278.79-21.85L278.79-21.85Q276.98-21.85 275.37-20.92 273.76-20 272.13-18.48L272.13-18.48 272.13 0 266.22 0ZM311.82 1.78L305.91 1.78Q305.35 2.1 304.74 2.51 304.13 2.93 303.6 3.43 303.08 3.93 302.74 4.53 302.4 5.13 302.4 5.81L302.4 5.81Q302.4 6.54 302.82 7.18 303.25 7.81 304.09 8.29 304.93 8.76 306.18 9.05 307.42 9.33 309.04 9.33L309.04 9.33Q310.89 9.33 312.33 8.96 313.77 8.59 314.76 7.97 315.75 7.35 316.26 6.54 316.78 5.74 316.78 4.86L316.78 4.86Q316.78 4.08 316.38 3.5 315.99 2.93 315.32 2.54 314.65 2.15 313.75 1.97 312.84 1.78 311.82 1.78L311.82 1.78ZM302.3 1.29L302.3 1.29Q300.61 0.71 299.55-0.26 298.49-1.22 298.49-2.54L298.49-2.54Q298.49-3.34 298.92-4.08 299.34-4.81 300.04-5.47 300.74-6.13 301.61-6.73 302.49-7.32 303.4-7.89L303.4-7.89Q301.88-8.54 300.82-9.45 299.76-10.35 299.09-11.43 298.42-12.5 298.11-13.7 297.81-14.89 297.81-16.11L297.81-16.11Q297.81-18.46 298.81-20.35 299.81-22.24 301.46-23.58 303.1-24.93 305.22-25.65 307.33-26.37 309.57-26.37L309.57-26.37Q311.26-26.37 312.89-25.95 314.53-25.54 315.65-24.83L315.65-24.83Q316.43-25.27 317.73-25.57 319.02-25.88 320.41-25.88L320.41-25.88 324.56-25.88 323.51-21.68 318.26-21.68Q318.41-21.53 318.7-21.11 319-20.68 319.27-20.04 319.53-19.41 319.74-18.59 319.95-17.77 319.95-16.85L319.95-16.85Q319.95-14.79 318.99-13.02 318.02-11.25 316.42-9.95 314.82-8.64 312.76-7.9 310.7-7.15 308.52-7.15L308.52-7.15Q308.06-7.15 307.6-7.19 307.13-7.23 306.64-7.28L306.64-7.28Q306.25-7.03 305.81-6.73 305.37-6.42 305.01-6.07 304.64-5.71 304.4-5.3 304.15-4.88 304.15-4.44L304.15-4.44Q304.15-3.69 304.84-3.22 305.52-2.76 306.72-2.76L306.72-2.76 313.31-2.76Q315.07-2.76 316.69-2.33 318.31-1.9 319.55-1.09 320.78-0.27 321.52 0.92 322.27 2.1 322.27 3.61L322.27 3.61Q322.27 5.3 321.3 7.07 320.34 8.84 318.46 10.29 316.58 11.74 313.82 12.66 311.06 13.57 307.47 13.57L307.47 13.57Q305.18 13.57 303.21 13.17 301.25 12.77 299.8 12.02 298.34 11.28 297.53 10.22 296.71 9.16 296.71 7.84L296.71 7.84Q296.71 6.67 297.32 5.66 297.93 4.66 298.81 3.83 299.69 3 300.64 2.37 301.59 1.73 302.3 1.29ZM303.25-16.89L303.25-16.89Q303.25-15.65 303.68-14.59 304.1-13.53 304.87-12.73 305.64-11.94 306.68-11.5 307.72-11.06 308.96-11.06L308.96-11.06Q310.13-11.06 311.16-11.46 312.19-11.87 312.94-12.6 313.7-13.33 314.14-14.37 314.58-15.41 314.58-16.67L314.58-16.67Q314.58-17.92 314.15-18.97 313.72-20.02 312.95-20.79 312.19-21.56 311.14-22 310.09-22.44 308.84-22.44L308.84-22.44Q307.67-22.44 306.66-22.05 305.64-21.66 304.89-20.94 304.13-20.21 303.69-19.19 303.25-18.16 303.25-16.89ZM364.28 0L342.99 0 342.99-35.77 364.74-35.77 363.94-31.47 349.04-31.47 349.04-20.68 362.23-20.68 361.44-16.5 349.04-16.5 349.04-4.3 365.08-4.3 364.28 0ZM376.04 0L370.38 0 380.02-13.26 371.08-25.88 377.97-25.88 381.51-20.24 383.41-16.46 383.88-16.46 385.88-20.24 389.64-25.88 395.3-25.88 386.17-13.7 396.04 0 389.18 0 384.9-6.52 382.88-10.35 382.41-10.35 380.39-6.59 376.04 0ZM408.17-18.46L408.17-4.76Q408.78-4.47 409.47-4.27 410.17-4.08 410.83-3.96 411.49-3.83 412.1-3.78 412.71-3.74 413.15-3.74L413.15-3.74Q415.03-3.74 416.54-4.48 418.05-5.22 419.13-6.51 420.2-7.79 420.78-9.5 421.35-11.21 421.35-13.16L421.35-13.16Q421.35-14.99 420.87-16.58 420.4-18.16 419.54-19.34 418.69-20.51 417.47-21.18 416.25-21.85 414.78-21.85L414.78-21.85Q413.02-21.85 411.33-20.91 409.63-19.97 408.17-18.46L408.17-18.46ZM406.99-25.88L407.87-21.53Q408.75-22.36 409.78-23.22 410.8-24.07 411.99-24.77 413.17-25.46 414.53-25.92 415.88-26.37 417.42-26.37L417.42-26.37Q419.79-26.37 421.65-25.33 423.52-24.29 424.82-22.57 426.11-20.85 426.81-18.62 427.5-16.38 427.5-14.01L427.5-14.01Q427.5-10.89 426.35-8.23 425.21-5.57 423.23-3.63 421.25-1.68 418.59-0.6 415.93 0.49 412.93 0.49L412.93 0.49Q412.34 0.49 411.69 0.45 411.05 0.42 410.42 0.34 409.8 0.27 409.21 0.16 408.63 0.05 408.17-0.1L408.17-0.1 408.17 13.09 402.26 13.09 402.26-25.88 406.99-25.88ZM456.35-5.32L456.35-2.37Q455.28-1.61 454.04-1.07 452.79-0.54 451.47-0.18 450.15 0.17 448.85 0.33 447.54 0.49 446.37 0.49L446.37 0.49Q443.66 0.49 441.33-0.34 439-1.17 437.27-2.78 435.55-4.39 434.58-6.75 433.6-9.11 433.6-12.16L433.6-12.16Q433.6-15.41 434.7-18.04 435.8-20.68 437.64-22.52 439.48-24.37 441.91-25.37 444.34-26.37 446.98-26.37L446.98-26.37Q449.18-26.37 451.07-25.65 452.96-24.93 454.34-23.51 455.72-22.09 456.5-19.97 457.28-17.85 457.28-15.04L457.28-15.04Q457.28-14.36 457.22-13.59 457.16-12.82 457.01-12.08L457.01-12.08 439.73-12.08Q439.73-10.11 440.42-8.59 441.12-7.08 442.39-6.07 443.66-5.05 445.44-4.53 447.22-4 449.37-4L449.37-4Q449.98-4 450.8-4.05 451.62-4.1 452.55-4.25 453.47-4.39 454.45-4.65 455.43-4.91 456.35-5.32L456.35-5.32ZM439.73-14.97L451.79-14.97Q451.79-16.75 451.34-18.09 450.89-19.43 450.1-20.34 449.32-21.24 448.29-21.69 447.25-22.14 446.05-22.14L446.05-22.14Q444.71-22.14 443.56-21.61 442.41-21.07 441.56-20.1 440.7-19.14 440.22-17.82 439.73-16.5 439.73-14.97L439.73-14.97ZM465.14 0L465.14-25.88 469.92-25.88 470.75-18.16Q471.1-18.8 471.46-19.47 471.83-20.14 472.19-20.76 472.56-21.39 472.88-21.9 473.2-22.41 473.42-22.75L473.42-22.75Q473.93-23.51 474.58-24.18 475.22-24.85 475.98-25.33 476.74-25.81 477.61-26.09 478.49-26.37 479.52-26.37L479.52-26.37Q480.23-26.37 480.94-26.2 481.64-26.03 482.13-25.66L482.13-25.66 481.5-20.21Q481.06-20.34 480.47-20.37 479.89-20.41 479.42-20.41L479.42-20.41Q477.86-20.41 476.64-19.96 475.42-19.51 474.43-18.71 473.44-17.92 472.62-16.85 471.8-15.77 471.05-14.53L471.05-14.53 471.05 0 465.14 0ZM488.74 0L488.74-25.88 494.68-25.88 494.68 0 488.74 0ZM491.7-30.98L491.7-30.98Q490.92-30.98 490.27-31.24 489.62-31.49 489.15-31.93 488.67-32.37 488.41-32.98 488.16-33.59 488.16-34.3L488.16-34.3Q488.16-35.03 488.44-35.66 488.72-36.28 489.22-36.76 489.72-37.23 490.39-37.5 491.06-37.77 491.84-37.77L491.84-37.77Q492.6-37.77 493.24-37.5 493.87-37.23 494.33-36.78 494.8-36.33 495.07-35.71 495.34-35.08 495.34-34.38L495.34-34.38Q495.34-33.64 495.05-33.02 494.77-32.4 494.27-31.95 493.77-31.49 493.11-31.24 492.45-30.98 491.7-30.98ZM525.14-5.32L525.14-2.37Q524.07-1.61 522.82-1.07 521.58-0.54 520.26-0.18 518.94 0.17 517.63 0.33 516.33 0.49 515.16 0.49L515.16 0.49Q512.45 0.49 510.11-0.34 507.78-1.17 506.06-2.78 504.34-4.39 503.36-6.75 502.39-9.11 502.39-12.16L502.39-12.16Q502.39-15.41 503.49-18.04 504.58-20.68 506.43-22.52 508.27-24.37 510.7-25.37 513.13-26.37 515.77-26.37L515.77-26.37Q517.96-26.37 519.86-25.65 521.75-24.93 523.13-23.51 524.51-22.09 525.29-19.97 526.07-17.85 526.07-15.04L526.07-15.04Q526.07-14.36 526.01-13.59 525.95-12.82 525.8-12.08L525.8-12.08 508.51-12.08Q508.51-10.11 509.21-8.59 509.91-7.08 511.18-6.07 512.45-5.05 514.23-4.53 516.01-4 518.16-4L518.16-4Q518.77-4 519.59-4.05 520.4-4.1 521.33-4.25 522.26-4.39 523.24-4.65 524.21-4.91 525.14-5.32L525.14-5.32ZM508.51-14.97L520.58-14.97Q520.58-16.75 520.12-18.09 519.67-19.43 518.89-20.34 518.11-21.24 517.07-21.69 516.03-22.14 514.84-22.14L514.84-22.14Q513.5-22.14 512.35-21.61 511.2-21.07 510.35-20.1 509.49-19.14 509-17.82 508.51-16.5 508.51-14.97L508.51-14.97ZM533.93 0L533.93-25.88 538.71-25.88 539.54-21.46Q540.4-22.24 541.47-23.11 542.54-23.97 543.81-24.69 545.08-25.42 546.49-25.89 547.89-26.37 549.4-26.37L549.4-26.37Q551.19-26.37 552.64-25.7 554.09-25.02 555.12-23.82 556.14-22.61 556.7-20.92 557.27-19.24 557.27-17.24L557.27-17.24 557.27 0 551.33 0 551.33-16.53Q551.33-17.85 550.97-18.85 550.6-19.85 549.95-20.51 549.31-21.17 548.42-21.51 547.52-21.85 546.5-21.85L546.5-21.85Q544.69-21.85 543.08-20.92 541.47-20 539.83-18.48L539.83-18.48 539.83 0 533.93 0ZM585.22-5.32L585.22-2.37Q583.48-0.98 581.36-0.24 579.23 0.49 576.79 0.49L576.79 0.49Q574.06 0.49 571.86-0.43 569.66-1.34 568.13-2.97 566.59-4.59 565.76-6.85 564.93-9.11 564.93-11.82L564.93-11.82Q564.93-15.01 566.05-17.69 567.17-20.36 569.11-22.29 571.06-24.22 573.69-25.29 576.33-26.37 579.36-26.37L579.36-26.37Q580.02-26.37 580.77-26.31 581.53-26.25 582.32-26.12 583.12-26 583.88-25.79 584.65-25.59 585.31-25.29L585.31-25.29 584.26-20.75 583.75-20.51Q583.31-20.83 582.71-21.13 582.11-21.44 581.43-21.66 580.75-21.88 580.02-22.01 579.28-22.14 578.57-22.14L578.57-22.14Q577.01-22.14 575.66-21.53 574.3-20.92 573.29-19.75 572.28-18.58 571.69-16.88 571.1-15.19 571.1-13.04L571.1-13.04Q571.1-10.79 571.74-9.11 572.37-7.42 573.5-6.29 574.62-5.15 576.16-4.58 577.7-4 579.5-4L579.5-4Q580.63-4 582.07-4.27 583.51-4.54 585.22-5.32L585.22-5.32ZM613.95-5.32L613.95-2.37Q612.87-1.61 611.63-1.07 610.38-0.54 609.06-0.18 607.75 0.17 606.44 0.33 605.13 0.49 603.96 0.49L603.96 0.49Q601.25 0.49 598.92-0.34 596.59-1.17 594.87-2.78 593.15-4.39 592.17-6.75 591.19-9.11 591.19-12.16L591.19-12.16Q591.19-15.41 592.29-18.04 593.39-20.68 595.23-22.52 597.08-24.37 599.51-25.37 601.93-26.37 604.57-26.37L604.57-26.37Q606.77-26.37 608.66-25.65 610.55-24.93 611.93-23.51 613.31-22.09 614.09-19.97 614.87-17.85 614.87-15.04L614.87-15.04Q614.87-14.36 614.81-13.59 614.75-12.82 614.61-12.08L614.61-12.08 597.32-12.08Q597.32-10.11 598.02-8.59 598.71-7.08 599.98-6.07 601.25-5.05 603.03-4.53 604.82-4 606.96-4L606.96-4Q607.57-4 608.39-4.05 609.21-4.1 610.14-4.25 611.07-4.39 612.04-4.65 613.02-4.91 613.95-5.32L613.95-5.32ZM597.32-14.97L609.38-14.97Q609.38-16.75 608.93-18.09 608.48-19.43 607.7-20.34 606.92-21.24 605.88-21.69 604.84-22.14 603.64-22.14L603.64-22.14Q602.3-22.14 601.15-21.61 600.01-21.07 599.15-20.1 598.3-19.14 597.81-17.82 597.32-16.5 597.32-14.97L597.32-14.97Z" opacity="1" transform="matrix(1,0,0,1,0,0)" fill="#8d021f" class="slogan-text-1" data-fill-palette-color="secondary" id="text-1"></path></svg></g></svg></g></svg></g></svg></g><g></g></svg></g></svg></g></svg></g><g><path d="M82.187 83.857A122.216 122.216 0 0 1 313.333 83.857L310.252 83.857A119.134 119.134 0 0 0 85.268 83.857L82.187 83.857M82.187 163.343A122.216 122.216 0 0 0 313.333 163.343L310.252 163.343A119.134 119.134 0 0 1 85.268 163.343L82.187 163.343" fill="#ff908b" stroke="transparent" data-fill-palette-color="tertiary"></path></g></svg></g><defs></defs></svg><rect width="395.52" height="247.2" fill="none" stroke="none" visibility="hidden"></rect></g></svg></g></svg>